<svg width="51" height="51" viewBox="0 0 51 51" fill="none" xmlns="http://www.w3.org/2000/svg">
<g clip-path="url(#clip0)">
<path d="M49.6403 48.3314H45.3435V40.6166C45.3435 40.0773 44.9062 39.6401 44.3669 39.6401C43.8276 39.6401 43.3903 40.0773 43.3903 40.6166V48.3314H31.6716V29.7768C31.6716 29.2375 31.2343 28.8003 30.6951 28.8003H20.5389C19.9996 28.8003 19.5623 29.2375 19.5623 29.7768V48.3314H7.8436V26.2611H8.21938C8.47837 26.2611 8.7267 26.1582 8.90991 25.9751L25.617 9.26801L42.324 25.9751C42.5072 26.1582 42.7556 26.2611 43.0146 26.2611H43.3903V33.5853C43.3903 34.1247 43.8276 34.5619 44.3669 34.5619C44.9062 34.5619 45.3435 34.1247 45.3435 33.5853V26.2611H49.6403C50.0353 26.2611 50.3914 26.0231 50.5426 25.6583C50.6937 25.2934 50.61 24.8733 50.3308 24.594L26.3075 0.570678C25.9261 0.189331 25.3079 0.189331 24.9263 0.570678L15.7467 9.75033C15.3653 10.1317 15.3653 10.75 15.7467 11.1314C16.1281 11.5128 16.7465 11.5128 17.1278 11.1314L25.617 2.64225L47.2826 24.308H43.419L26.3075 7.19643C25.9261 6.81509 25.3079 6.81509 24.9263 7.19643L7.8148 24.308H3.95124L11.6591 16.6002C12.0405 16.2189 12.0405 15.6005 11.6591 15.2191C11.2778 14.8378 10.6594 14.8377 10.278 15.2191L0.903006 24.594C0.623808 24.8733 0.540117 25.2933 0.691288 25.6583C0.84246 26.0232 1.19861 26.2611 1.59363 26.2611H5.89049V48.3313H1.59363C1.05437 48.3313 0.61707 48.7686 0.61707 49.3079C0.61707 49.8473 1.05437 50.2845 1.59363 50.2845H6.86704H20.5389H30.6951H44.3669H49.6403C50.1796 50.2845 50.6169 49.8473 50.6169 49.3079C50.6169 48.7686 50.1796 48.3314 49.6403 48.3314ZM29.7185 48.3314H21.5154V30.7534H29.7185V48.3314Z" fill="black"/>
<path d="M40.2655 28.8003H34.7967C34.2575 28.8003 33.8202 29.2375 33.8202 29.7769V39.5424C33.8202 40.0818 34.2575 40.519 34.7967 40.519H40.2655C40.8047 40.519 41.242 40.0818 41.242 39.5424V29.7769C41.242 29.2375 40.8047 28.8003 40.2655 28.8003ZM39.2889 38.5659H35.7733V30.7534H39.2889V38.5659Z" fill="black"/>
<path d="M16.4375 28.8003H10.9687C10.4295 28.8003 9.99219 29.2375 9.99219 29.7769V39.5424C9.99219 40.0818 10.4295 40.519 10.9687 40.519H16.4375C16.9767 40.519 17.414 40.0818 17.414 39.5424V29.7769C17.414 29.2375 16.9767 28.8003 16.4375 28.8003ZM15.4609 38.5659H11.9453V30.7534H15.4609V38.5659Z" fill="black"/>
<path d="M25.617 16.332C23.1401 16.332 21.1249 18.3473 21.1249 20.8242C21.1249 23.3012 23.1401 25.3164 25.617 25.3164C28.094 25.3164 30.1092 23.3012 30.1092 20.8242C30.1092 18.3473 28.094 16.332 25.617 16.332ZM25.617 23.3633C24.217 23.3633 23.078 22.2242 23.078 20.8242C23.078 19.4242 24.217 18.2852 25.617 18.2852C27.0171 18.2852 28.1561 19.4242 28.1561 20.8242C28.1561 22.2242 27.0171 23.3633 25.617 23.3633Z" fill="black"/>
<path d="M24.4519 38.852C24.2704 38.6704 24.0183 38.5659 23.7616 38.5659C23.5048 38.5659 23.2528 38.6704 23.0712 38.852C22.8895 39.0337 22.785 39.2856 22.785 39.5425C22.785 39.7993 22.8894 40.0513 23.0712 40.2329C23.2529 40.4145 23.5048 40.519 23.7616 40.519C24.0184 40.519 24.2704 40.4145 24.4519 40.2329C24.6336 40.0513 24.7382 39.7993 24.7382 39.5425C24.7382 39.2856 24.6337 39.0337 24.4519 38.852Z" fill="black"/>
<path d="M14.2957 12.5825C14.1141 12.4009 13.8622 12.2964 13.6053 12.2964C13.3485 12.2964 13.0966 12.4009 12.9149 12.5825C12.7333 12.7642 12.6288 13.0161 12.6288 13.2729C12.6288 13.5298 12.7332 13.7817 12.9149 13.9634C13.0967 14.145 13.3485 14.2495 13.6053 14.2495C13.8622 14.2495 14.1141 14.145 14.2957 13.9634C14.4773 13.7817 14.5819 13.5298 14.5819 13.2729C14.5819 13.0161 14.4774 12.7642 14.2957 12.5825Z" fill="black"/>
<path d="M45.0574 36.1499C44.8758 35.9684 44.6238 35.8638 44.3671 35.8638C44.1102 35.8638 43.8583 35.9683 43.6766 36.1499C43.495 36.3325 43.3905 36.5835 43.3905 36.8403C43.3905 37.0972 43.4949 37.3491 43.6766 37.5317C43.8583 37.7134 44.1102 37.8169 44.3671 37.8169C44.6239 37.8169 44.8758 37.7134 45.0574 37.5317C45.239 37.3491 45.3436 37.0981 45.3436 36.8403C45.3436 36.5835 45.2391 36.3315 45.0574 36.1499Z" fill="black"/>
</g>
<defs>
<clipPath id="clip0">
<rect width="50" height="50" fill="white" transform="translate(0.617065 0.284668)"/>
</clipPath>
</defs>
</svg>
