<svg width="46" height="45" viewBox="0 0 46 45" fill="none" xmlns="http://www.w3.org/2000/svg">
<g clip-path="url(#clip0)">
<path d="M15.2827 34.4444C15.2713 34.3881 15.2546 34.3328 15.2326 34.2791C15.2106 34.2264 15.1834 34.1754 15.1518 34.128C15.1201 34.0796 15.0832 34.0348 15.0428 33.9944C15.0023 33.954 14.9575 33.917 14.9092 33.8854C14.8617 33.8538 14.8107 33.8265 14.7571 33.8045C14.7044 33.7826 14.649 33.765 14.5928 33.7544C14.4794 33.7316 14.3625 33.7316 14.25 33.7544C14.1938 33.765 14.1384 33.7826 14.0848 33.8045C14.032 33.8265 13.9811 33.8538 13.9336 33.8854C13.8853 33.917 13.8404 33.954 13.8 33.9944C13.7596 34.0348 13.7227 34.0796 13.691 34.128C13.6585 34.1754 13.6321 34.2264 13.6102 34.2791C13.5882 34.3328 13.5706 34.3881 13.5601 34.4444C13.5486 34.5006 13.5425 34.5586 13.5425 34.6158C13.5425 34.6729 13.5486 34.7309 13.5601 34.7872C13.5706 34.8434 13.5882 34.8988 13.6102 34.9515C13.6321 35.0051 13.6585 35.0561 13.691 35.1036C13.7227 35.1519 13.7596 35.1967 13.8 35.2372C13.8404 35.2776 13.8853 35.3145 13.9336 35.3461C13.9811 35.3779 14.032 35.4051 14.0848 35.4271C14.1384 35.4491 14.1938 35.4666 14.25 35.4772C14.3063 35.4886 14.3643 35.4948 14.4214 35.4948C14.4785 35.4948 14.5365 35.4886 14.5928 35.4772C14.649 35.4666 14.7044 35.4491 14.7571 35.4271C14.8107 35.4051 14.8617 35.3778 14.9092 35.3461C14.9575 35.3145 15.0023 35.2776 15.0428 35.2372C15.0832 35.1967 15.1201 35.1519 15.1518 35.1036C15.1834 35.0561 15.2106 35.0051 15.2326 34.9515C15.2546 34.8988 15.2713 34.8434 15.2827 34.7872C15.2941 34.7309 15.3003 34.6729 15.3003 34.6158C15.3003 34.5586 15.2941 34.5006 15.2827 34.4444Z" fill="black"/>
<path d="M40.5463 34.7152C40.5428 34.7064 40.5393 34.6977 40.5356 34.6891C39.7267 32.7962 37.8295 32.0966 35.5842 32.8635L29.4611 34.5568C29.107 33.4847 28.224 32.5724 26.9754 32.109C26.9677 32.1062 26.9599 32.1034 26.9521 32.1008L20.2214 29.8163C19.6612 29.0922 17.9063 27.2393 14.6207 27.2393C12.3246 27.2393 10.2933 28.8144 9.13125 30.5314H0.996094C0.510674 30.5314 0.117188 30.9249 0.117188 31.4103V42.4913C0.117188 42.9767 0.510674 43.3702 0.996094 43.3702H6.22181C6.70723 43.3702 7.10071 42.9767 7.10071 42.4913V41.7324H9.55137C10.0368 41.7324 10.4303 41.3389 10.4303 40.8535V40.6006C11.8588 40.7252 12.3287 40.9962 13.6407 41.7527C14.6497 42.3346 16.1747 43.2139 18.9209 44.4487C18.9337 44.4544 18.9466 44.4598 18.9595 44.4649C19.4866 44.6723 20.517 44.998 21.7872 44.998C22.6714 44.998 23.6721 44.8401 24.6991 44.3745L38.2335 39.5286C38.2576 39.52 38.2813 39.5103 38.3045 39.4996C39.598 38.9045 41.5255 37.2272 40.5463 34.7152ZM5.3429 41.6123H1.875V32.2891H5.3429V41.6123ZM8.67246 39.9745H7.10071V32.2891H8.67246V39.9745ZM37.6022 37.8874L24.0739 42.7311C24.062 42.7353 24.0459 42.7417 24.0342 42.7464C24.0224 42.7513 24.0105 42.7563 23.9988 42.7617C22.1147 43.6276 20.3238 43.1092 19.6219 42.8363C16.9692 41.6427 15.5533 40.8263 14.5189 40.2298C13.0806 39.4004 12.3876 39.0007 10.4303 38.8391V31.7602C11.2634 30.3947 12.879 28.997 14.6208 28.997C17.6079 28.997 18.8736 30.9398 18.9233 31.0182C19.0306 31.1928 19.1956 31.3243 19.3896 31.3902L26.3747 33.7609C27.4903 34.1796 28.0799 35.135 27.8089 36.0877C27.6838 36.5277 27.3948 36.8926 26.9953 37.1153C26.5992 37.336 26.1413 37.3905 25.7048 37.2698L17.8304 34.7744C17.3674 34.6277 16.8736 34.884 16.727 35.3467C16.5803 35.8095 16.8366 36.3034 17.2994 36.4501L25.1875 38.9498C25.1958 38.9524 25.2042 38.955 25.2126 38.9574C25.5275 39.0469 25.8481 39.0912 26.1668 39.0912C26.7502 39.0912 27.3272 38.9426 27.8509 38.6508C28.6606 38.1997 29.2462 37.4601 29.4996 36.5685C29.5199 36.4973 29.5378 36.4261 29.5533 36.3549L36.1524 34.5268C37.1055 34.2013 38.3566 34.0839 38.9137 35.3669C39.4903 36.873 37.9917 37.7016 37.6022 37.8874Z" fill="black"/>
<path d="M31.6752 11.5616C31.6638 11.5053 31.6471 11.45 31.6242 11.3963C31.6022 11.3436 31.5759 11.2926 31.5434 11.2452C31.5117 11.1968 31.4748 11.152 31.4344 11.1116C31.3939 11.0711 31.3491 11.0342 31.3008 11.0026C31.2533 10.9709 31.2023 10.9437 31.1496 10.9217C31.096 10.8998 31.0406 10.8822 30.9853 10.8716C30.8719 10.8488 30.755 10.8488 30.6416 10.8716C30.5854 10.8822 30.53 10.8998 30.4772 10.9217C30.4236 10.9437 30.3727 10.9709 30.3252 11.0026C30.2769 11.0342 30.232 11.0711 30.1916 11.1116C30.1512 11.152 30.1143 11.1968 30.0826 11.2452C30.051 11.2926 30.0237 11.3436 30.0018 11.3963C29.9798 11.45 29.9622 11.5053 29.9517 11.5616C29.9402 11.6178 29.9341 11.6758 29.9341 11.733C29.9341 11.7901 29.9402 11.8481 29.9517 11.9043C29.9622 11.9606 29.9798 12.016 30.0018 12.0687C30.0237 12.1223 30.051 12.1733 30.0826 12.2208C30.1143 12.2691 30.1512 12.3139 30.1916 12.3543C30.232 12.3948 30.2769 12.4317 30.3252 12.4633C30.3727 12.495 30.4236 12.5222 30.4772 12.5442C30.53 12.5662 30.5854 12.5829 30.6416 12.5943C30.6979 12.6057 30.7559 12.6119 30.813 12.6119C30.8701 12.6119 30.9281 12.6057 30.9853 12.5943C31.0406 12.5829 31.096 12.5662 31.1496 12.5442C31.2023 12.5222 31.2533 12.495 31.3008 12.4633C31.3491 12.4317 31.3939 12.3948 31.4344 12.3543C31.4748 12.3139 31.5117 12.2691 31.5434 12.2208C31.5759 12.1733 31.6022 12.1223 31.6242 12.0687C31.6471 12.016 31.6638 11.9606 31.6752 11.9043C31.6866 11.8481 31.6919 11.7901 31.6919 11.733C31.6919 11.6758 31.6866 11.6178 31.6752 11.5616Z" fill="black"/>
<path d="M44.2384 2.97861H39.0126C38.5272 2.97861 38.1337 3.3721 38.1337 3.85752V4.61637H35.6831C35.1977 4.61637 34.8042 5.00985 34.8042 5.49527V5.74822C33.3756 5.6235 32.9057 5.35262 31.5938 4.59606C30.5848 4.01423 29.0598 3.13488 26.3135 1.90011C26.3008 1.8943 26.2879 1.88894 26.2748 1.88385C25.3809 1.53211 23.038 0.840056 20.5357 1.97411L16.9989 3.24044L14.0178 0.259363C13.6746 -0.0838501 13.1181 -0.0838501 12.7748 0.259363L2.98751 10.0466C2.67093 10.3633 2.6102 10.9123 2.98751 11.2896L19.712 28.0141C19.9796 28.2818 20.6062 28.3627 20.955 28.0141L29.8904 19.0788C30.1227 19.0988 30.3638 19.1096 30.6136 19.1096C32.9099 19.1096 34.941 17.5344 36.103 15.8176H44.2384C44.7238 15.8176 45.1173 15.4241 45.1173 14.9387V3.85752C45.1173 3.3721 44.7238 2.97861 44.2384 2.97861ZM13.3962 2.12379L15.3994 4.12699C14.804 4.49525 14.1155 4.6923 13.3962 4.6923C12.6768 4.6923 11.9885 4.49534 11.393 4.12699L13.3962 2.12379ZM6.85523 12.6714L4.85203 10.6681L6.85523 8.66487C7.22349 9.26033 7.42054 9.94878 7.42054 10.6681C7.42054 11.3874 7.22358 12.0758 6.85523 12.6714ZM20.3335 26.1496L18.3307 24.1467C19.5535 23.3921 21.1134 23.3921 22.3363 24.1467L20.3335 26.1496ZM23.6026 22.8806C21.6604 21.4717 19.0066 21.4717 17.0644 22.8806L8.12147 13.9375C8.80781 12.9936 9.17835 11.8597 9.17835 10.6681C9.17835 9.47637 8.8079 8.34258 8.12147 7.39863L10.1269 5.39332C11.0708 6.07966 12.2046 6.4502 13.3963 6.4502C14.588 6.4502 15.7218 6.07966 16.6658 5.39332L18.5667 7.29431C18.1566 7.35486 17.7566 7.49004 17.3836 7.6979C16.7536 8.04893 16.2593 8.57461 15.9515 9.21058C14.9601 9.39419 14.0422 9.87416 13.3222 10.5941C11.3689 12.5475 11.3689 15.7259 13.3223 17.6794C14.299 18.656 15.5819 19.1444 16.8649 19.1444C18.1479 19.1444 19.4309 18.6561 20.4076 17.6794C21.0431 17.0439 21.4882 16.2629 21.7112 15.4118L24.6787 16.4189C24.3447 17.9665 24.6868 19.5946 25.6098 20.8734L23.6026 22.8806ZM18.259 14.2398C18.2668 14.2426 18.2745 14.2454 18.2823 14.248L20.0398 14.8445C19.9071 15.4435 19.6068 15.9942 19.1647 16.4364C17.8966 17.7043 15.8333 17.7045 14.5653 16.4364C13.2973 15.1684 13.2973 13.1052 14.5653 11.8371C14.8712 11.5311 15.2322 11.2919 15.6255 11.1298C15.7877 12.4799 16.7599 13.6834 18.259 14.2398ZM26.8762 19.6069C26.5369 19.0541 26.345 18.4231 26.3147 17.7791C26.7356 18.0835 27.2502 18.3817 27.8647 18.6184L26.8762 19.6069ZM34.8041 14.5883C33.9711 15.9539 32.3555 17.3516 30.6136 17.3516C30.2877 17.3516 29.9823 17.3284 29.6968 17.2871C29.6956 17.2869 29.6945 17.2868 29.6933 17.2866C27.7953 17.0109 26.7742 15.9321 26.4377 15.505C26.4198 15.4786 26.3434 15.3787 26.3321 15.362C26.2297 15.1791 26.0618 15.0319 25.8477 14.9592L18.8597 12.5875C17.7445 12.169 17.155 11.2141 17.4252 10.2617C17.4254 10.2611 17.4256 10.2604 17.4257 10.2598C17.426 10.2591 17.4262 10.2583 17.4264 10.2576C17.552 9.81905 17.8404 9.45527 18.2391 9.23317C18.6351 9.01248 19.0929 8.95772 19.5296 9.07875L27.404 11.5741C27.8668 11.7209 28.3607 11.4645 28.5073 11.0017C28.6539 10.539 28.3977 10.045 27.935 9.89833L21.6724 7.91376L21.6177 7.85909C21.6172 7.85856 21.6166 7.85795 21.616 7.85742L18.3737 4.61513L21.1606 3.61722C21.17 3.6138 21.1816 3.60949 21.1909 3.60571C21.1933 3.60474 21.1978 3.60299 21.2001 3.60202C21.2121 3.59719 21.2239 3.59209 21.2355 3.58673C23.1196 2.72083 24.9104 3.23912 25.6124 3.51211C28.2652 4.70575 29.6811 5.52217 30.7156 6.11868C32.1538 6.9481 32.8469 7.34774 34.8041 7.50937V14.5883ZM38.1337 14.0596H36.562V6.37418H38.1337V14.0596ZM43.3595 14.0596H39.8916V4.73642H43.3595V14.0596Z" fill="black"/>
</g>
<defs>
<clipPath id="clip0">
<rect width="45" height="45" fill="white" transform="translate(0.117188)"/>
</clipPath>
</defs>
</svg>
