<svg width="46" height="46" viewBox="0 0 46 46" fill="none" xmlns="http://www.w3.org/2000/svg">
<g clip-path="url(#clip0)">
<path d="M6.67933 7.98633C5.12604 7.98633 3.86682 9.24554 3.86682 10.7988V18.2988H5.7418V10.7988C5.7418 10.2811 6.16157 9.86131 6.67933 9.86131H29.1794V7.98633H6.67933Z" fill="black"/>
<path d="M6.67933 36.1114C6.16157 36.1114 5.7418 35.6917 5.7418 35.1739V25.7988H3.86682V35.1739C3.86682 36.7272 5.12604 37.9864 6.67933 37.9864H16.0544V36.1114H6.67933Z" fill="black"/>
<path d="M29.8423 38.5295L7.07408 15.7613C6.70801 15.3953 6.11457 15.3953 5.74842 15.7613L0.391549 21.1183C0.0255709 21.4843 0.0255709 22.0778 0.391549 22.4439L23.1598 45.2121C23.3356 45.3879 23.574 45.4867 23.8226 45.4867C24.0712 45.4866 24.3096 45.3879 24.4854 45.2121L29.8422 39.8552C30.2083 39.4891 30.2083 38.8956 29.8423 38.5295ZM23.8226 43.2236L2.37999 21.781L6.41129 17.7497L27.8539 39.1924L23.8226 43.2236Z" fill="black"/>
<path d="M41.367 36.1113H27.3044V37.9863H37.617V42.6738C37.617 43.1916 38.0367 43.6113 38.5545 43.6113H41.367C43.4381 43.6113 45.117 41.9324 45.117 39.8613C45.117 37.7902 43.4381 36.1113 41.367 36.1113ZM41.367 41.7363H39.492V37.9863H41.367C42.4025 37.9863 43.242 38.8258 43.242 39.8613C43.242 40.8969 42.4025 41.7363 41.367 41.7363Z" fill="black"/>
<path d="M41.3671 7.98633H36.6796V9.86131H41.3671C42.4026 9.86131 43.242 10.7008 43.242 11.7363V39.8614H45.117V11.7363C45.1171 9.66522 43.4381 7.98633 41.3671 7.98633Z" fill="black"/>
<path d="M17.267 27.0105L14.4542 29.8232L15.78 31.149L18.5928 28.3363L17.267 27.0105Z" fill="black"/>
<path d="M13.5171 23.261L10.7043 26.0737L12.0301 27.3995L14.8429 24.5868L13.5171 23.261Z" fill="black"/>
<path d="M21.015 30.7605L18.2023 33.5732L19.5281 34.899L22.3408 32.0863L21.015 30.7605Z" fill="black"/>
<path d="M24.7666 34.5129L21.9539 37.3257L23.2797 38.6515L26.0924 35.8387L24.7666 34.5129Z" fill="black"/>
<path d="M9.76452 19.5115L6.95178 22.3242L8.27758 23.65L11.0903 20.8373L9.76452 19.5115Z" fill="black"/>
<path d="M40.5552 2.59416L39.2595 1.29856C38.1632 0.252043 36.4379 0.252043 35.3417 1.29856L21.086 15.5542C20.72 15.9203 20.72 16.5137 21.086 16.8799L24.9739 20.7677C25.1492 20.9442 25.3879 21.0431 25.6367 21.0424C25.8853 21.0423 26.1237 20.9435 26.2994 20.7677L40.5552 6.51199C40.5556 6.51155 40.5561 6.51111 40.5565 6.51067C41.6376 5.42882 41.637 3.67531 40.5552 2.59416ZM39.2305 5.18545L25.6367 18.7792L23.0745 16.217L36.6683 2.62413C37.0223 2.28584 37.5799 2.28584 37.9339 2.62413L39.2305 3.91885C39.2306 3.91903 39.2307 3.91912 39.2309 3.91929C39.5804 4.26901 39.5802 4.83591 39.2305 5.18545Z" fill="black"/>
<path d="M25.3357 19.2157L21.2895 20.5667L22.6405 16.5139L20.8592 15.9204L18.9148 21.7526C18.883 21.8482 18.8667 21.9483 18.8667 22.049C18.8668 22.5668 19.2866 22.9865 19.8044 22.9863C19.9036 22.9867 20.0023 22.9715 20.0969 22.9413L25.9291 20.9969L25.3357 19.2157Z" fill="black"/>
<path d="M34.0749 3.88954L32.7491 5.21533L36.6371 9.10329L37.9629 7.77749L34.0749 3.88954Z" fill="black"/>
<path d="M33.867 21.1113H19.8044V22.9863H33.867V21.1113Z" fill="black"/>
<path d="M37.6169 21.1113H35.7419V22.9863H37.6169V21.1113Z" fill="black"/>
<path d="M41.367 21.1113H39.4921V22.9863H41.367V21.1113Z" fill="black"/>
</g>
<defs>
<clipPath id="clip0">
<rect width="45" height="45" fill="white" transform="translate(0.117065 0.5)"/>
</clipPath>
</defs>
</svg>
