<svg width="50" height="50" viewBox="0 0 50 50" fill="none" xmlns="http://www.w3.org/2000/svg">
<g clip-path="url(#clip0)">
<path d="M19.721 29.6816C15.2106 29.6816 11.5543 33.3379 11.5543 37.8483C11.5543 42.3587 15.2106 46.015 19.721 46.015C24.2314 46.015 27.8877 42.3587 27.8877 37.8483C27.8829 33.3399 24.2294 29.6864 19.721 29.6816ZM19.721 44.3816C16.1126 44.3816 13.1877 41.4567 13.1877 37.8483C13.1877 34.2399 16.1126 31.315 19.721 31.315C23.3294 31.315 26.2543 34.2399 26.2543 37.8483C26.2503 41.4547 23.3274 44.3777 19.721 44.3816Z" fill="black"/>
<path d="M19.721 35.3982C20.7183 35.3982 21.3543 35.8815 21.3543 36.2149H22.9877C22.9877 35.0545 21.9597 34.1146 20.5377 33.8467V32.9482H18.9043V33.8467C17.4824 34.1126 16.4543 35.0529 16.4543 36.2149C16.4543 37.5894 17.8891 38.6649 19.721 38.6649C20.7183 38.6649 21.3543 39.1482 21.3543 39.4816C21.3543 39.8149 20.7183 40.2982 19.721 40.2982C18.7237 40.2982 18.0877 39.8149 18.0877 39.4816H16.4543C16.4543 40.642 17.4824 41.5819 18.9043 41.8498V42.7482H20.5377V41.8498C21.9597 41.5839 22.9877 40.6436 22.9877 39.4816C22.9877 38.107 21.5529 37.0316 19.721 37.0316C18.7237 37.0316 18.0877 36.5483 18.0877 36.2149C18.0877 35.8815 18.7237 35.3982 19.721 35.3982Z" fill="black"/>
<path d="M42.5876 47.6483H8.28762V28.0483H21.3543C22.7073 28.0483 23.8043 26.9513 23.8043 25.5983V5.18162H32.7876V14.9816H42.5876V26.4149H44.221V13.8268L33.9424 3.54828H23.8043V2.73162C23.8043 1.37861 22.7073 0.281616 21.3543 0.281616H3.38762C2.03462 0.281616 0.937622 1.37861 0.937622 2.73162V25.5983C0.937622 26.9513 2.03462 28.0483 3.38762 28.0483H6.65429V49.2816H44.221V37.8483H42.5876V47.6483ZM34.421 6.33643L41.4328 13.3483H34.421V6.33643ZM2.57096 25.5983V2.73162C2.57096 2.28062 2.93662 1.91495 3.38762 1.91495H21.3543C21.8053 1.91495 22.171 2.28062 22.171 2.73162V25.5983C22.171 26.0493 21.8053 26.4149 21.3543 26.4149H3.38762C2.93662 26.4149 2.57096 26.0493 2.57096 25.5983Z" fill="black"/>
<path d="M27.0709 20.6982H28.7043V22.3316H27.0709V20.6982Z" fill="black"/>
<path d="M30.3376 20.6982H40.1376V22.3316H30.3376V20.6982Z" fill="black"/>
<path d="M27.0709 17.4316H28.7043V19.065H27.0709V17.4316Z" fill="black"/>
<path d="M30.3376 17.4316H40.1376V19.065H30.3376V17.4316Z" fill="black"/>
<path d="M27.0709 23.965H28.7043V25.5983H27.0709V23.965Z" fill="black"/>
<path d="M30.3376 23.965H40.1376V25.5983H30.3376V23.965Z" fill="black"/>
<path d="M27.0709 27.2316H28.7043V28.8649H27.0709V27.2316Z" fill="black"/>
<path d="M30.3376 27.2316H40.1376V28.8649H30.3376V27.2316Z" fill="black"/>
<path d="M21.3542 2.73157H3.38757V8.44823H21.3542V2.73157ZM19.7209 6.8149H5.02091V4.3649H19.7209V6.8149Z" fill="black"/>
<path d="M7.47101 9.26489H5.83768C4.93568 9.26489 4.20435 9.99622 4.20435 10.8982V12.5316C4.20435 13.4336 4.93568 14.1649 5.83768 14.1649H7.47101C8.37301 14.1649 9.10435 13.4336 9.10435 12.5316V10.8982C9.10435 9.99622 8.37301 9.26489 7.47101 9.26489ZM5.83768 12.5316V10.8982H7.47101V12.5316H5.83768Z" fill="black"/>
<path d="M13.1876 9.26489H11.5542C10.6522 9.26489 9.9209 9.99622 9.9209 10.8982V12.5316C9.9209 13.4336 10.6522 14.1649 11.5542 14.1649H13.1876C14.0896 14.1649 14.8209 13.4336 14.8209 12.5316V10.8982C14.8209 9.99622 14.0896 9.26489 13.1876 9.26489ZM11.5542 12.5316V10.8982H13.1876V12.5316H11.5542Z" fill="black"/>
<path d="M18.9042 9.26489H17.2709C16.3689 9.26489 15.6376 9.99622 15.6376 10.8982V12.5316C15.6376 13.4336 16.3689 14.1649 17.2709 14.1649H18.9042C19.8062 14.1649 20.5376 13.4336 20.5376 12.5316V10.8982C20.5376 9.99622 19.8062 9.26489 18.9042 9.26489ZM17.2709 12.5316V10.8982H18.9042V12.5316H17.2709Z" fill="black"/>
<path d="M7.47101 14.9816H5.83768C4.93568 14.9816 4.20435 15.7129 4.20435 16.6149V18.2482C4.20435 19.1502 4.93568 19.8816 5.83768 19.8816H7.47101C8.37301 19.8816 9.10435 19.1502 9.10435 18.2482V16.6149C9.10435 15.7129 8.37301 14.9816 7.47101 14.9816ZM5.83768 18.2482V16.6149H7.47101V18.2482H5.83768Z" fill="black"/>
<path d="M13.1876 14.9816H11.5542C10.6522 14.9816 9.9209 15.7129 9.9209 16.6149V18.2482C9.9209 19.1502 10.6522 19.8816 11.5542 19.8816H13.1876C14.0896 19.8816 14.8209 19.1502 14.8209 18.2482V16.6149C14.8209 15.7129 14.0896 14.9816 13.1876 14.9816ZM11.5542 18.2482V16.6149H13.1876V18.2482H11.5542Z" fill="black"/>
<path d="M18.9042 14.9816H17.2709C16.3689 14.9816 15.6376 15.7129 15.6376 16.6149V18.2482C15.6376 19.1502 16.3689 19.8816 17.2709 19.8816H18.9042C19.8062 19.8816 20.5376 19.1502 20.5376 18.2482V16.6149C20.5376 15.7129 19.8062 14.9816 18.9042 14.9816ZM17.2709 18.2482V16.6149H18.9042V18.2482H17.2709Z" fill="black"/>
<path d="M7.47101 20.6982H5.83768C4.93568 20.6982 4.20435 21.4296 4.20435 22.3316V23.9649C4.20435 24.8669 4.93568 25.5982 5.83768 25.5982H7.47101C8.37301 25.5982 9.10435 24.8669 9.10435 23.9649V22.3316C9.10435 21.4296 8.37301 20.6982 7.47101 20.6982ZM5.83768 23.9649V22.3316H7.47101V23.9649H5.83768Z" fill="black"/>
<path d="M13.1876 20.6982H11.5542C10.6522 20.6982 9.9209 21.4296 9.9209 22.3316V23.9649C9.9209 24.8669 10.6522 25.5982 11.5542 25.5982H13.1876C14.0896 25.5982 14.8209 24.8669 14.8209 23.9649V22.3316C14.8209 21.4296 14.0896 20.6982 13.1876 20.6982ZM11.5542 23.9649V22.3316H13.1876V23.9649H11.5542Z" fill="black"/>
<path d="M18.9042 20.6982H17.2709C16.3689 20.6982 15.6376 21.4296 15.6376 22.3316V23.9649C15.6376 24.8669 16.3689 25.5982 17.2709 25.5982H18.9042C19.8062 25.5982 20.5376 24.8669 20.5376 23.9649V22.3316C20.5376 21.4296 19.8062 20.6982 18.9042 20.6982ZM17.2709 23.9649V22.3316H18.9042V23.9649H17.2709Z" fill="black"/>
<path d="M49.1959 26.34C48.2265 25.4145 46.7012 25.4145 45.7319 26.34L31.7317 40.3398C31.6639 40.4084 31.6085 40.4881 31.5682 40.5759L29.5967 44.857C29.4543 45.1672 29.5201 45.5337 29.7618 45.7749C30.003 46.0166 30.3695 46.0824 30.6797 45.94L34.9609 43.9685C35.0486 43.9283 35.1283 43.8732 35.1969 43.805L49.1959 29.8049C50.1529 28.8482 50.1529 27.2967 49.1959 26.34ZM34.1442 42.5457L32.0044 43.5315L32.9902 41.3917L43.4286 30.9525L44.5834 32.1073L34.1442 42.5457ZM45.7406 30.9489L44.5858 29.7945L45.1576 29.2227L46.3125 30.3775L45.7406 30.9489ZM48.0439 28.6461L47.4665 29.2235L46.3117 28.0687L46.8899 27.4912C47.2125 27.1826 47.7209 27.1826 48.0439 27.4912C48.3625 27.8103 48.3625 28.3271 48.0439 28.6461Z" fill="black"/>
</g>
<defs>
<clipPath id="clip0">
<rect width="49" height="49" fill="white" transform="translate(0.937622 0.281616)"/>
</clipPath>
</defs>
</svg>
