<svg width="53" height="46" viewBox="0 0 53 46" fill="none" xmlns="http://www.w3.org/2000/svg">
<path d="M51.9829 19.4157L27.9748 0.530805C27.0739 -0.176935 25.7444 -0.176935 24.8435 0.530805L0.835462 19.4157C-0.171051 20.2068 -0.283174 21.5933 0.581008 22.5128C1.44519 23.4327 2.96302 23.535 3.96601 22.746L26.4092 5.09204L48.8525 22.746C49.3052 23.1025 49.8612 23.2765 50.4161 23.2765C51.0914 23.2765 51.7631 23.0174 52.2375 22.5126C53.1015 21.5933 52.9894 20.2066 51.9829 19.4157Z" fill="black"/>
<path d="M19.6716 45.0185V39.6426L18.3637 45.0185H19.6716Z" fill="black"/>
<path d="M33.1465 45.0185H34.4544L33.1465 39.6426V45.0185Z" fill="black"/>
<path d="M27.1931 8.17083C26.7437 7.81586 26.0745 7.81586 25.625 8.17083L7.53282 22.4456C7.2691 22.6538 7.11676 22.9572 7.11676 23.2765V43.9201C7.11676 44.5266 7.65421 45.0184 8.31787 45.0184H13.4325L16.3794 32.9638C16.5249 32.384 16.908 31.8582 17.5186 31.54C17.6689 31.4618 21.0491 29.7592 25.4862 29.5364L26.0846 30.6347H26.1052L24.4832 42.1803L26.26 45.0186H26.5578L28.3345 42.1803L26.7125 30.6347H26.7275L27.3293 29.5364C31.7642 29.7592 35.1488 31.4618 35.2991 31.54C35.91 31.8582 36.2928 32.384 36.4383 32.9638L39.3852 45.0184H44.4999C45.1635 45.0184 45.701 44.5268 45.701 43.9201V23.2766C45.701 22.9574 45.5487 22.6538 45.2849 22.4458L27.1931 8.17083ZM26.4092 29.0411C23.0484 29.0411 20.3213 25.4768 20.3213 22.4028C20.3213 19.3287 23.0484 16.8366 26.4092 16.8366C29.7677 16.8366 32.4935 19.3287 32.4935 22.4028C32.4935 25.4768 29.7677 29.0411 26.4092 29.0411Z" fill="black"/>
</svg>
