<svg width="47" height="47" viewBox="0 0 47 47" fill="none" xmlns="http://www.w3.org/2000/svg">
<g clip-path="url(#clip0)">
<path d="M36.8234 2.58162H29.1567V1.04828C29.1567 0.624894 28.8135 0.281616 28.3901 0.281616H17.6567C17.2333 0.281616 16.8901 0.624894 16.8901 1.04828V2.58162H9.2234C7.52985 2.58162 6.15674 3.95473 6.15674 5.64828V43.215C6.15674 44.9085 7.52985 46.2816 9.2234 46.2816H36.8234C38.517 46.2816 39.8901 44.9085 39.8901 43.215V5.64828C39.8901 3.95473 38.517 2.58162 36.8234 2.58162ZM18.4234 1.81495H27.6234V4.88162H18.4234V1.81495ZM38.3567 43.215C38.3567 44.0617 37.6702 44.7483 36.8234 44.7483H9.2234C8.37663 44.7483 7.69007 44.0617 7.69007 43.215V5.64828C7.69007 4.80151 8.37663 4.11495 9.2234 4.11495H16.8901V5.64828C16.8901 6.07167 17.2333 6.41495 17.6567 6.41495H28.3901C28.8135 6.41495 29.1567 6.07167 29.1567 5.64828V4.11495H36.8234C37.6702 4.11495 38.3567 4.80151 38.3567 5.64828V43.215Z" fill="black"/>
<path d="M19.1902 7.94824H36.8235V9.48158H19.1902V7.94824Z" fill="black"/>
<path d="M9.22339 7.94824H18.4234V9.48158H9.22339V7.94824Z" fill="black"/>
<path d="M9.22339 10.2483H23.0234V11.7816H9.22339V10.2483Z" fill="black"/>
<path d="M23.79 10.2483H36.8234V11.7816H23.79V10.2483Z" fill="black"/>
<path d="M28.3902 21.7482C29.2369 21.7482 29.9235 22.4348 29.9235 23.2816H31.4568C31.4516 21.8875 30.5067 20.6724 29.1568 20.3238V19.4482H27.6235V20.3238C26.1298 20.7083 25.1554 22.1439 25.3504 23.6739C25.5451 25.2042 26.8478 26.3501 28.3902 26.3482C29.2369 26.3482 29.9235 27.0348 29.9235 27.8816C29.9235 28.7284 29.2369 29.4149 28.3902 29.4149C27.5434 29.4149 26.8568 28.7284 26.8568 27.8816H25.3235C25.3287 29.2756 26.2736 30.4908 27.6235 30.8393V31.7149H29.1568V30.8393C30.6505 30.4548 31.6249 29.0192 31.4299 27.4893C31.2352 25.9589 29.9325 24.813 28.3902 24.8149C27.5434 24.8149 26.8568 24.1284 26.8568 23.2816C26.8568 22.4348 27.5434 21.7482 28.3902 21.7482Z" fill="black"/>
<path d="M28.3901 17.1483C23.7325 17.1483 19.9568 20.924 19.9568 25.5816C19.9568 30.2393 23.7325 34.015 28.3901 34.015C33.0478 34.015 36.8235 30.2393 36.8235 25.5816C36.8178 20.9262 33.0455 17.1539 28.3901 17.1483ZM28.3901 32.4816C24.5792 32.4816 21.4901 29.3925 21.4901 25.5816C21.4901 21.7708 24.5792 18.6816 28.3901 18.6816C32.201 18.6816 35.2901 21.7708 35.2901 25.5816C35.286 29.3906 32.1991 32.4775 28.3901 32.4816Z" fill="black"/>
<path d="M19.1902 40.1483H36.8235V41.6816H19.1902V40.1483Z" fill="black"/>
<path d="M9.22339 40.1483H18.4234V41.6816H9.22339V40.1483Z" fill="black"/>
<path d="M9.22339 42.4482H23.0234V43.9816H9.22339V42.4482Z" fill="black"/>
<path d="M23.79 42.4482H36.8234V43.9816H23.79V42.4482Z" fill="black"/>
<path d="M9.99006 25.5816H17.6567C18.0801 25.5816 18.4234 25.2383 18.4234 24.8149V20.2149C18.4234 19.7915 18.0801 19.4482 17.6567 19.4482H9.99006C9.56667 19.4482 9.22339 19.7915 9.22339 20.2149V24.8149C9.22339 25.2383 9.56667 25.5816 9.99006 25.5816ZM10.7567 20.9816H16.8901V24.0482H10.7567V20.9816Z" fill="black"/>
<path d="M9.99006 32.4816H17.6567C18.0801 32.4816 18.4234 32.1383 18.4234 31.7149V27.1149C18.4234 26.6915 18.0801 26.3483 17.6567 26.3483H9.99006C9.56667 26.3483 9.22339 26.6915 9.22339 27.1149V31.7149C9.22339 32.1383 9.56667 32.4816 9.99006 32.4816ZM10.7567 27.8816H16.8901V30.9483H10.7567V27.8816Z" fill="black"/>
<path d="M9.99006 39.3816H17.6567C18.0801 39.3816 18.4234 39.0383 18.4234 38.615V34.015C18.4234 33.5916 18.0801 33.2483 17.6567 33.2483H9.99006C9.56667 33.2483 9.22339 33.5916 9.22339 34.015V38.615C9.22339 39.0383 9.56667 39.3816 9.99006 39.3816ZM10.7567 34.7816H16.8901V37.8483H10.7567V34.7816Z" fill="black"/>
<path d="M9.99006 18.6817H17.6567C18.0801 18.6817 18.4234 18.3384 18.4234 17.915V13.315C18.4234 12.8916 18.0801 12.5483 17.6567 12.5483H9.99006C9.56667 12.5483 9.22339 12.8916 9.22339 13.315V17.915C9.22339 18.3384 9.56667 18.6817 9.99006 18.6817ZM10.7567 14.0817H16.8901V17.1483H10.7567V14.0817Z" fill="black"/>
</g>
<defs>
<clipPath id="clip0">
<rect width="46" height="46" fill="white" transform="translate(0.0234375 0.281616)"/>
</clipPath>
</defs>
</svg>
