<svg width="53" height="53" viewBox="0 0 53 53" fill="none" xmlns="http://www.w3.org/2000/svg">
<g clip-path="url(#clip0)">
<path d="M51.1568 5.48157H34.6901C34.2115 5.48157 33.8234 5.86962 33.8234 6.34823V8.94823H31.2234C30.7448 8.94823 30.3568 9.33628 30.3568 9.8149V19.6793L24.0856 22.8149H0.890104C0.411487 22.8149 0.0234375 23.2029 0.0234375 23.6816V46.2149C0.0234375 46.6935 0.411487 47.0816 0.890104 47.0816H18.2234C18.7021 47.0816 19.0901 46.6935 19.0901 46.2149V43.7709L28.4804 45.3361C28.5277 45.344 28.5756 45.348 28.6234 45.3482H41.6234C42.8564 45.3443 43.9938 44.6838 44.6082 43.6149H47.6901C48.1687 43.6149 48.5568 43.2268 48.5568 42.7482V40.1482H51.1568C51.6354 40.1482 52.0234 39.7602 52.0234 39.2816V6.34823C52.0234 5.86962 51.6354 5.48157 51.1568 5.48157ZM17.3568 45.3482H1.75677V24.5482H17.3568V45.3482ZM35.5568 7.2149H50.2901V26.181C50.2741 25.6344 50.1278 25.0836 49.8374 24.5756C49.5324 24.0422 49.0902 23.6 48.5568 23.295V9.8149C48.5568 9.33628 48.1687 8.94823 47.6901 8.94823H35.5568V7.2149ZM32.0901 10.6816H46.8234V22.8149H45.0901V15.0149C45.0901 14.5363 44.7021 14.1482 44.2234 14.1482C43.7448 14.1482 43.3568 13.7602 43.3568 13.2816C43.3568 12.803 42.9687 12.4149 42.4901 12.4149H36.4234C35.9448 12.4149 35.5568 12.803 35.5568 13.2816C35.5568 13.7602 35.1687 14.1482 34.6901 14.1482C34.2115 14.1482 33.8234 14.5363 33.8234 15.0149V22.8149H32.0901V10.6816ZM43.3568 15.7334V22.8149H35.5568V15.7334C36.2964 15.4699 36.8784 14.8878 37.1419 14.1482H41.7716C42.0351 14.8878 42.6172 15.4699 43.3568 15.7334ZM46.8234 41.8816H45.0901C45.0908 41.1947 44.8864 40.5233 44.5034 39.9532C46.31 39.3196 47.261 37.3413 46.6274 35.5346C46.5306 35.2587 46.3993 34.9962 46.2367 34.7532C46.4407 34.6795 46.6372 34.5863 46.8234 34.475V41.8816ZM46.8234 28.0149H43.3568C42.8782 28.0149 42.4901 28.4029 42.4901 28.8816C42.4901 29.3602 42.8782 29.7482 43.3568 29.7482H45.0901C46.0474 29.7482 46.8234 30.5242 46.8234 31.4816C46.8234 32.4389 46.0474 33.2149 45.0901 33.2149H41.6234C41.1448 33.2149 40.7568 33.6029 40.7568 34.0816C40.7568 34.5602 41.1448 34.9482 41.6234 34.9482H43.3568C44.3141 34.9482 45.0901 35.7242 45.0901 36.6816C45.0901 37.6389 44.3141 38.4149 43.3568 38.4149H39.8901C39.4115 38.4149 39.0234 38.8029 39.0234 39.2816C39.0234 39.7602 39.4115 40.1482 39.8901 40.1482H41.6234C42.5808 40.1482 43.3568 40.9242 43.3568 41.8816C43.3568 42.8389 42.5808 43.6149 41.6234 43.6149H28.6954L19.0901 42.0142V24.5482H24.2901C24.4245 24.5483 24.5571 24.5173 24.6775 24.4572L30.3568 21.6172V23.6816C30.3568 24.1602 30.7448 24.5482 31.2234 24.5482H46.8234C47.7808 24.5482 48.5568 25.3242 48.5568 26.2816C48.5568 27.2389 47.7808 28.0149 46.8234 28.0149ZM48.5568 38.4149V29.275C49.6356 28.6583 50.254 27.5465 50.2901 26.3891V38.4149H48.5568Z" fill="black"/>
<path d="M12.1567 36.6816C10.2422 36.6816 8.69006 38.2337 8.69006 40.1483C8.69006 42.0629 10.2422 43.615 12.1567 43.615C14.0713 43.615 15.6234 42.0629 15.6234 40.1483C15.6234 38.2337 14.0713 36.6816 12.1567 36.6816ZM12.1567 41.8816C11.1994 41.8816 10.4234 41.1056 10.4234 40.1483C10.4234 39.191 11.1994 38.415 12.1567 38.415C13.1141 38.415 13.8901 39.191 13.8901 40.1483C13.8901 41.1056 13.1141 41.8816 12.1567 41.8816Z" fill="black"/>
</g>
<defs>
<clipPath id="clip0">
<rect width="52" height="52" fill="white" transform="translate(0.0234375 0.281616)"/>
</clipPath>
</defs>
</svg>
